HIERARCHY
ROOT Hips
{
	OFFSET 0.000000 0.000000 0.000000
	CHANNELS 6 Xposition Yposition Zposition Xrotation Yrotation Zrotation
	JOINT LeftUpLeg_virtual
	{
		OFFSET 0.000000 0.000000 0.000000
		CHANNELS 3 Xrotation Yrotation Zrotation
		JOINT LeftUpLeg
		{
			OFFSET 11.394100 -6.187798 -0.413800
			CHANNELS 3 Xrotation Yrotation Zrotation
			JOINT LeftLeg
			{
				OFFSET 0.430247 -32.302673 3.732800
				CHANNELS 3 Xrotation Yrotation Zrotation
				JOINT LeftFoot
				{
					OFFSET -0.430247 -48.264931 -6.423300
					CHANNELS 3 Xrotation Yrotation Zrotation
					JOINT LeftToeBase
					{
						OFFSET 4.230900 -16.068199 23.438400
						CHANNELS 3 Xrotation Yrotation Zrotation
						JOINT LeftToe_End
						{
							OFFSET 4.510700 0.695400 19.974600
							CHANNELS 3 Xrotation Yrotation Zrotation
							End Site
							{
								OFFSET 0 0 0
							}
						}
					}
				}
			}
		}
	}
	JOINT RightUpLeg_virtual
	{
		OFFSET 0.000000 0.000000 0.000000
		CHANNELS 3 Xrotation Yrotation Zrotation
		JOINT RightUpLeg
		{
			OFFSET -11.333700 -6.187798 -0.413800
			CHANNELS 3 Xrotation Yrotation Zrotation
			JOINT RightLeg
			{
				OFFSET -0.430392 -32.302628 3.733000
				CHANNELS 3 Xrotation Yrotation Zrotation
				JOINT RightFoot
				{
					OFFSET 0.430392 -48.264973 -6.423500
					CHANNELS 3 Xrotation Yrotation Zrotation
					JOINT RightToeBase
					{
						OFFSET -4.230900 -16.068199 23.438400
						CHANNELS 3 Xrotation Yrotation Zrotation
						JOINT RightToe_End
						{
							OFFSET -4.510700 0.695400 19.974600
							CHANNELS 3 Xrotation Yrotation Zrotation
							End Site
							{
								OFFSET 0 0 0
							}
						}
					}
				}
			}
		}
	}
	JOINT Spine_virtual
	{
		OFFSET 0.000000 0.000000 0.000000
		CHANNELS 3 Xrotation Yrotation Zrotation
		JOINT Spine
		{
			OFFSET -0.002400 12.777504 0.315300
			CHANNELS 3 Xrotation Yrotation Zrotation
			JOINT Spine1
			{
				OFFSET -0.002067 5.816869 0.032633
				CHANNELS 3 Xrotation Yrotation Zrotation
				JOINT Spine1_split
				{
					OFFSET -0.002067 5.816869 0.032633
					CHANNELS 3 Xrotation Yrotation Zrotation
					JOINT Spine2
					{
						OFFSET -0.002067 5.816869 0.032633
						CHANNELS 3 Xrotation Yrotation Zrotation
						JOINT Neck_virtual
						{
							OFFSET 0.000000 0.000000 0.000000
							CHANNELS 3 Xrotation Yrotation Zrotation
							JOINT Neck
							{
								OFFSET -0.003700 21.199493 -0.826900
								CHANNELS 3 Xrotation Yrotation Zrotation
								JOINT Head
								{
									OFFSET 0.000000 20.442200 4.834800
									CHANNELS 3 Xrotation Yrotation Zrotation
									JOINT HeadTop_End
									{
										OFFSET 0.000000 34.668396 4.968400
										CHANNELS 3 Xrotation Yrotation Zrotation
										End Site
										{
											OFFSET 0 0 0
										}
									}
								}
							}
						}
						JOINT LeftShoulder_virtual
						{
							OFFSET 0.000000 0.000000 0.000000
							CHANNELS 3 Xrotation Yrotation Zrotation
							JOINT LeftShoulder
							{
								OFFSET 3.288150 8.794197 -1.372250
								CHANNELS 3 Xrotation Yrotation Zrotation
								JOINT LeftShoulder_split
								{
									OFFSET 3.288150 8.794197 -1.372250
									CHANNELS 3 Xrotation Yrotation Zrotation
									JOINT LeftArm
									{
										OFFSET 11.953299 -2.279007 -0.146200
										CHANNELS 3 Xrotation Yrotation Zrotation
										JOINT LeftForeArm
										{
											OFFSET 18.448900 0.000000 0.000000
											CHANNELS 3 Xrotation Yrotation Zrotation
											JOINT LeftHand
											{
												OFFSET 29.527798 0.000000 0.000000
												CHANNELS 3 Xrotation Yrotation Zrotation
												End Site
												{
													OFFSET 0 0 0
												}
											}
										}
									}
								}
							}
						}
						JOINT RightShoulder_virtual
						{
							OFFSET 0.000000 0.000000 0.000000
							CHANNELS 3 Xrotation Yrotation Zrotation
							JOINT RightShoulder
							{
								OFFSET -3.249400 8.794197 -1.372250
								CHANNELS 3 Xrotation Yrotation Zrotation
								JOINT RightShoulder_split
								{
									OFFSET -3.249400 8.794197 -1.372250
									CHANNELS 3 Xrotation Yrotation Zrotation
									JOINT RightArm
									{
										OFFSET -11.953299 -2.279007 -0.146200
										CHANNELS 3 Xrotation Yrotation Zrotation
										JOINT RightForeArm
										{
											OFFSET -18.448900 0.000000 0.000000
											CHANNELS 3 Xrotation Yrotation Zrotation
											JOINT RightHand
											{
												OFFSET -29.527802 0.000000 0.000000
												CHANNELS 3 Xrotation Yrotation Zrotation
												End Site
												{
													OFFSET 0 0 0
												}
											}
										}
									}
								}
							}
						}
					}
				}
			}
		}
	}
}
MOTION
Frames: 8
Frame Time: 0.03333333
3.442251 97.067108 8.088924 0.000000 0.000000 0.000000 -30.477083 -35.189046 -19.468013 -2.303492 11.219010 3.647626 33.172846 -1.126001 -2.927532 -7.681647 6.057831 3.538793 0.126836 -0.000001 0.000000 0.000000 0.000000 0.000000 -30.477083 -35.189046 -19.468013 12.176409 -9.064838 -8.013601 29.276882 6.286996 -4.651669 -15.528647 -13.187133 5.055980 0.690907 -0.005003 0.873370 0.000000 0.000000 0.000000 -30.477083 -35.189046 -19.468013 11.203574 -4.851676 -0.540812 3.545658 -2.400649 -0.151372 0.000000 0.000000 0.000000 0.000000 0.000000 0.000000 3.557022 -2.388380 -0.108335 1.405437 0.338759 -0.804159 -7.334354 -0.833457 4.801418 0.000000 0.000000 0.000000 3.557022 -2.388380 -0.108335 0.566130 -16.514906 -10.358600 0.000000 0.000000 0.000000 -20.119398 4.478003 -37.028699 0.000047 -67.657067 0.000036 0.000000 0.000000 0.000000 3.557022 -2.388380 -0.108335 0.045594 14.239525 15.204264 0.000000 0.000000 0.000000 -11.558844 -5.458993 60.927405 0.000002 39.374067 0.000009 0.000000 0.000000 0.000000 
4.290394 97.090454 8.857225 0.000000 0.000000 0.000000 -31.377274 -37.240841 -21.006757 -1.038197 12.128032 3.505827 31.737034 -1.433611 -3.944040 -7.787310 7.644881 6.274339 0.024820 -0.000488 0.186274 0.000000 0.000000 0.000000 -31.377274 -37.240841 -21.006757 11.765561 -8.254420 -8.121027 28.847034 5.526685 -5.685852 -14.554664 -11.985104 6.481522 0.443652 -0.002108 0.563334 0.000000 0.000000 0.000000 -31.377274 -37.240841 -21.006757 11.204727 -4.856364 -0.527557 3.545659 -2.400647 -0.151373 0.000000 0.000000 0.000000 0.000000 0.000000 0.000000 3.557022 -2.388376 -0.108335 1.375141 0.323727 -0.752559 -7.477940 -1.010711 4.744163 0.000000 0.000000 0.000000 3.557022 -2.388376 -0.108335 0.571843 -16.587613 -10.332638 0.000000 0.000000 0.000000 -20.150634 4.605182 -37.056484 -0.000038 -67.693124 -0.000034 0.000000 0.000000 0.000000 3.557022 -2.388376 -0.108335 0.025379 14.173676 15.395890 0.000000 0.000000 0.000000 -11.518551 -5.405239 60.741453 -0.000018 39.512822 0.000014 0.000000 0.000000 0.000000 
5.133106 97.074211 9.535055 0.000000 0.000000 0.000000 -32.385707 -39.295332 -22.589387 -0.991333 12.651262 3.443533 31.848417 -2.258071 -4.835000 -7.993856 10.157380 8.311164 -0.288410 0.003051 -0.292521 0.000000 0.000000 0.000000 -32.385707 -39.295332 -22.589387 10.933499 -7.786681 -8.606779 28.874208 4.425313 -6.137789 -13.451170 -11.916433 7.424080 0.318810 -0.001064 0.405128 0.000000 0.000000 0.000000 -32.385707 -39.295332 -22.589387 11.201334 -4.846340 -0.567429 3.545656 -2.400645 -0.151373 0.000000 0.000000 0.000000 0.000000 0.000000 0.000000 3.557022 -2.388381 -0.108336 1.314815 0.322544 -0.750639 -7.907087 -0.936248 4.513180 0.000000 0.000000 0.000000 3.557022 -2.388381 -0.108336 0.579616 -16.606960 -10.288912 0.000000 0.000000 0.000000 -19.994009 4.524790 -36.978637 0.000072 -67.695193 0.000087 0.000000 0.000000 0.000000 3.557022 -2.388381 -0.108336 0.007981 14.220989 15.529859 0.000000 0.000000 0.000000 -11.429888 -5.404806 60.569974 0.000023 39.667198 -0.000025 0.000000 0.000000 0.000000 
5.918716 97.058907 10.200632 0.000000 0.000000 0.000000 -33.503604 -41.327852 -24.260805 -0.697264 13.094559 3.225929 31.617840 -3.187666 -5.530852 -8.820843 12.930474 10.032168 0.221561 0.003829 -0.763964 0.000000 0.000000 0.000000 -33.503604 -41.327852 -24.260805 9.747517 -7.693787 -9.306842 29.196477 4.447536 -6.136225 -11.968926 -14.210983 7.753840 0.068142 -0.000050 0.090681 0.000000 0.000000 0.000000 -33.503604 -41.327852 -24.260805 11.197136 -4.834509 -0.617115 3.545659 -2.400648 -0.151373 0.000000 0.000000 0.000000 0.000000 0.000000 0.000000 3.557022 -2.388383 -0.108336 1.244412 0.349213 -0.810672 -8.403959 -0.613163 4.203383 0.000000 0.000000 0.000000 3.557022 -2.388383 -0.108336 0.581072 -16.531950 -10.273113 0.000000 0.000000 0.000000 -19.827091 4.304705 -36.893854 -0.000002 -67.649137 0.000010 0.000000 0.000000 0.000000 3.557022 -2.388383 -0.108336 0.004875 14.295180 15.534099 0.000000 0.000000 0.000000 -11.379685 -5.432795 60.532073 0.000004 39.716717 -0.000010 0.000000 0.000000 0.000000 
6.574448 97.013222 10.867382 0.000000 0.000000 0.000000 -34.748762 -43.343503 -26.011266 -0.373075 13.614646 3.109509 31.348181 -3.963426 -6.103084 -9.526018 15.514203 10.978245 0.273692 0.005982 -0.826210 0.000000 0.000000 0.000000 -34.748762 -43.343503 -26.011266 7.803707 -7.561607 -9.429142 30.368793 5.782715 -5.996844 -10.474707 -18.633111 7.275316 -0.305248 -0.000016 -0.000003 0.000000 0.000000 0.000000 -34.748762 -43.343503 -26.011266 11.189803 -4.814518 -0.704026 3.545657 -2.400642 -0.151373 0.000000 0.000000 0.000000 0.000000 0.000000 0.000000 3.557021 -2.388380 -0.108336 1.195444 0.388335 -0.891235 -8.722705 -0.261785 3.985372 0.000000 0.000000 0.000000 3.557021 -2.388380 -0.108336 0.586136 -16.366151 -10.226844 0.000000 0.000000 0.000000 -19.851648 4.116403 -37.021183 0.000016 -67.544697 0.000021 0.000000 0.000000 0.000000 3.557021 -2.388380 -0.108336 0.003392 14.360908 15.529840 0.000000 0.000000 0.000000 -11.341095 -5.462476 60.508892 0.000008 39.752579 -0.000006 0.000000 0.000000 0.000000 
7.075260 96.933228 11.514641 0.000000 0.000000 0.000000 -36.132992 -45.332853 -27.860237 -0.082850 14.222873 3.217650 31.450050 -2.468914 -6.540686 -10.155989 15.673530 11.214793 0.274936 0.007577 -0.826236 0.000000 0.000000 0.000000 -36.132992 -45.332853 -27.860237 5.312018 -7.342790 -9.120933 32.306142 2.729073 -5.939764 -9.850494 -18.001751 6.489211 -0.212527 -0.000020 -0.000003 0.000000 0.000000 0.000000 -36.132992 -45.332853 -27.860237 11.180004 -4.788726 -0.820744 3.545657 -2.400648 -0.151373 0.000000 0.000000 0.000000 0.000000 0.000000 0.000000 3.557021 -2.388383 -0.108336 1.183323 0.417437 -0.946591 -8.778258 -0.075429 3.932014 0.000000 0.000000 0.000000 3.557021 -2.388383 -0.108336 0.600057 -16.178592 -10.123239 0.000000 0.000000 0.000000 -20.038955 4.037601 -37.343878 -0.000040 -67.415504 -0.000038 0.000000 0.000000 0.000000 3.557021 -2.388383 -0.108336 -0.008663 14.407502 15.620935 0.000000 0.000000 0.000000 -11.242558 -5.415466 60.366660 0.000001 39.865048 -0.000010 0.000000 0.000000 0.000000 
7.458931 96.824852 12.102566 0.000000 0.000000 0.000000 -37.672414 -47.290427 -29.822310 0.142788 14.860098 3.414919 31.706592 -0.817422 -6.978143 -10.793786 15.603521 11.296248 0.275505 0.008137 -0.826249 0.000000 0.000000 0.000000 -37.672414 -47.290427 -29.822310 2.722721 -7.523096 -8.189310 35.445840 0.456888 -5.772512 -11.087462 -16.340270 3.186704 0.244446 -0.000011 -0.000003 0.000000 0.000000 0.000000 -37.672414 -47.290427 -29.822310 11.167662 -4.756128 -0.968899 3.545657 -2.400646 -0.151372 0.000000 0.000000 0.000000 0.000000 0.000000 0.000000 3.557023 -2.388381 -0.108336 1.192630 0.430594 -0.966581 -8.643789 -0.060016 3.983617 0.000000 0.000000 0.000000 3.557023 -2.388381 -0.108336 0.608279 -16.057845 -10.059848 0.000000 0.000000 0.000000 -20.202328 4.019560 -37.580063 0.000038 -67.332811 0.000052 0.000000 0.000000 0.000000 3.557023 -2.388381 -0.108336 -0.021355 14.391731 15.735465 0.000000 0.000000 0.000000 -11.108959 -5.227248 60.183399 0.000001 39.961384 0.000006 0.000000 0.000000 0.000000 
7.782097 96.709709 12.601374 0.000000 0.000000 0.000000 -39.377933 -49.202316 -31.932490 0.326632 15.378173 3.751420 32.001728 0.817980 -7.586569 -11.395479 15.572884 11.339471 0.276593 0.008238 -0.826249 0.000000 0.000000 0.000000 -39.377933 -49.202316 -31.932490 0.521175 -8.224050 -7.369380 38.963825 -0.461320 -5.335912 -12.079984 -14.714625 0.002988 0.008286 -0.008452 1.133645 0.000000 0.000000 0.000000 -39.377933 -49.202316 -31.932490 11.154751 -4.719966 -1.124922 3.545659 -2.400646 -0.151373 0.000000 0.000000 0.000000 0.000000 0.000000 0.000000 3.557022 -2.388382 -0.108336 1.194268 0.435842 -0.969274 -8.463742 -0.121014 4.055451 0.000000 0.000000 0.000000 3.557022 -2.388382 -0.108336 0.593603 -16.031490 -10.148312 0.000000 0.000000 0.000000 -20.271569 4.012372 -37.544119 -0.000001 -67.336035 -0.000010 0.000000 0.000000 0.000000 3.557022 -2.388382 -0.108336 -0.017894 14.282167 15.743537 0.000000 0.000000 0.000000 -11.067280 -4.992260 60.152438 -0.000005 39.902173 0.000012 0.000000 0.000000 0.000000 
